# xmcd CD database file
#
# Track frame offsets:
#	150
#	16313
#	31447
#	43234
#	54675
#	70011
#	83727
#	95948
#	107911
#	120692
#	134369
#
# Disc length: 1943 seconds
#
# Revision: 0
# Processed by: cddbd v1.5.2PL0 Copyright (c) Steve Scherf et al.
# Submitted via: CDex 1.51
#
DISCID=9b07950b
DTITLE=Grand Jojo - Tournée Général !
DYEAR=2013
DGENRE=Ambiance
TTITLE0=Happy Bière Day
TTITLE1=Viva Brasil
TTITLE2=La Framboise Et La Vanille
TTITLE3=Le Chapeau De Rabbi Jacob
TTITLE4=A Zeebroek-Les-Bains
TTITLE5=Plein Comme Une Andouille (Yo Du Robinet)(Avec JL Fonck)
TTITLE6=Charlotte
TTITLE7=Le Rire
TTITLE8=Dis-Le
TTITLE9=Buffalo Bill
TTITLE10=Taxi De Nuit
EXTD=YEAR: 2013
EXTT0=
EXTT1=
EXTT2=
EXTT3=
EXTT4=
EXTT5=
EXTT6=
EXTT7=
EXTT8=
EXTT9=
EXTT10=
PLAYORDER=
